<svg xmlns="http://www.w3.org/2000/svg" width="1228" height="506" viewBox="0 0 1228 506" fill="#FFFFFF" role="img" aria-label="Florería Miraflores">
  <title>Florería Miraflores</title>
  <path d="M0 0 C10.5315 2.451 19.4341 7.0036 28.7383 12.418 C29.7373 12.9852 30.7363 13.5523 31.7656 14.1367 C52.7947 26.7356 71.4026 46.7683 85.7383 66.418 C86.4859 67.3706 87.2336 68.3232 88.0039 69.3047 C100.9288 85.8676 110.3987 104.685 119.7383 123.418 C120.0046 122.9105 120.2708 122.403 120.5452 121.8801 C122.7208 117.7353 124.9006 113.5928 127.0859 109.4531 C128.6069 106.5717 130.1193 103.6866 131.6094 100.7891 C138.3653 87.8442 146.7208 75.8847 155.7383 64.418 C156.2275 63.792 156.7167 63.166 157.2207 62.521 C169.1231 47.3881 182.2678 32.984 197.7383 21.418 C198.5298 20.8211 199.3212 20.2243 200.1367 19.6094 C214.3273 9.2994 233.4145 -3.0964 251.7383 -0.582 C254.8633 1.043 254.8633 1.043 256.7383 3.418 C257.4442 6.5241 257.3203 8.411 255.7109 11.1953 C255.2868 11.8257 254.8627 12.456 254.4258 13.1055 C243.7059 29.3985 248.6248 52.3993 252.288 70.2726 C254.2462 79.6021 256.348 88.9023 258.413 98.2086 C271.324 156.5534 273.4908 216.359 240.7383 268.793 C214.9345 309.1993 214.9345 309.1993 201.9883 313.7305 C197.8889 313.3363 196.363 312.5995 193.7383 309.418 C193.295 305.4425 193.2811 303.1821 195.3555 299.7148 C196.1005 298.8744 196.8456 298.0339 197.6133 297.168 C198.4396 296.2166 199.2659 295.2653 200.1172 294.2852 C201.7796 292.4667 203.4528 290.6581 205.1406 288.8633 C225.4053 267.252 239.2412 240.7243 246.6133 212.1055 C246.8045 211.3668 246.9958 210.6282 247.1929 209.8672 C250.2927 196.8934 251.1226 183.7185 251.0508 170.418 C251.049 169.7066 251.0471 168.9953 251.0453 168.2624 C250.9892 155.1417 249.9552 142.3638 247.7383 129.418 C247.572 128.4401 247.4057 127.4621 247.2344 126.4546 C245.0943 114.1791 242.4432 102.0266 239.6824 89.8792 C234.3894 66.5776 229.2486 43.4096 232.7383 19.418 C215.4007 27.3857 202.3566 38.1841 188.7383 51.418 C188.1592 51.9795 187.5801 52.5411 186.9834 53.1196 C161.413 78.2697 137.8686 112.7544 131.1174 148.3931 C130.1586 153.3032 129.1328 157.684 124.9258 160.7305 C121.972 161.6588 119.8225 161.7956 116.7383 161.418 C113.2412 159.2836 111.9283 157.9562 110.5508 154.0547 C110.2637 152.7417 109.9937 151.4249 109.7383 150.1055 C109.4104 148.6527 109.0783 147.2009 108.7422 145.75 C108.5761 145.0199 108.4099 144.2898 108.2388 143.5376 C100.3347 110.063 77.7675 79.5123 54.2842 55.0312 C53.2509 53.9529 52.2229 52.8696 51.2002 51.7812 C39.1064 38.9321 23.7879 25.1012 6.7383 19.418 C6.8221 19.94 6.8221 19.94 7.2461 22.582 C8.4684 31.0186 8.9183 39.0904 8.0977 47.5859 C8.0531 48.0571 8.0531 48.0571 7.8279 50.4416 C6.6708 61.5003 4.2955 72.27 1.8633 83.1055 C1.4232 85.1085 0.9844 87.1117 0.5469 89.1152 C-0.3088 93.0264 -1.1688 96.9366 -2.033 100.8459 C-7.6633 126.355 -7.6633 126.355 -8.9492 137.6055 C-9.0695 138.6145 -9.1898 139.6235 -9.3137 140.6631 C-10.2671 148.9074 -10.9594 157.1232 -11.2617 165.418 C-11.303 166.3641 -11.3442 167.3103 -11.3867 168.2852 C-12.4141 213.6184 4.8998 258.0384 36.1753 290.9292 C36.4274 291.1897 36.4274 291.1897 37.7031 292.5078 C38.2071 293.0346 38.711 293.5615 39.2302 294.1042 C40.6558 295.5824 42.1027 297.04 43.5508 298.4961 C46.1288 301.9396 46.663 304.1445 46.7383 308.418 C44.4107 311.733 42.8488 313.1218 38.9258 314.168 C23.4615 310.5293 8.511 283.5953 0.5508 270.918 C-0.7362 268.7608 -2.0069 266.5939 -3.2617 264.418 C-3.9179 263.2823 -4.574 262.1466 -5.25 260.9766 C-20.7605 233.4161 -27.7118 203.2705 -27.6367 171.793 C-27.6358 170.891 -27.635 169.9891 -27.6341 169.0598 C-27.5835 153.1912 -26.3112 138.0218 -23.2617 122.418 C-23.1359 121.7691 -23.01 121.1202 -22.8803 120.4517 C-20.9349 110.4442 -18.8451 100.469 -16.7082 90.5009 C-4.0034 31.2287 -4.0034 31.2287 -14.0742 14.4141 C-15.6462 11.7718 -16.7101 9.4519 -17.2617 6.418 C-13.7413 -1.7346 -7.6901 -1.3722 0 0 Z " transform="translate(67.26171875,40.58203125)"/>
  <path d="M0 0 C4.0768 3.5915 7.2652 7.6959 7.8179 13.251 C8.5818 34.1325 3.1836 50.4835 -10.668 66.5156 C-19.6476 75.7933 -30.2774 81.4793 -42.707 84.4531 C-43.0766 84.5434 -43.0766 84.5434 -44.9469 85.0005 C-46.7553 85.4418 -48.565 85.8777 -50.375 86.3125 C-52.7871 95.5186 -55.1956 104.7257 -57.5996 113.9339 C-58.7165 118.2116 -59.8346 122.489 -60.9556 126.7656 C-62.0413 130.9081 -63.1237 135.0515 -64.204 139.1954 C-64.6127 140.7606 -65.0224 142.3255 -65.4334 143.8901 C-68.3447 154.9776 -70.9571 166.107 -73.375 177.3125 C-61.5574 177.8094 -52.7435 175.7822 -43.375 168.3125 C-41.3139 166.3662 -39.3558 164.3416 -37.375 162.3125 C-36.715 162.3125 -36.055 162.3125 -35.375 162.3125 C-35.2416 162.0179 -35.2416 162.0179 -34.5664 160.5273 C-33.3536 158.2727 -32.0628 156.7329 -30.3125 154.875 C-17.7778 140.7539 -9.7195 124.6624 -4.9563 106.5199 C-3.946 102.6836 -2.8719 98.8649 -1.8086 95.043 C-1.6 94.2879 -1.3915 93.5329 -1.1766 92.7549 C7.6472 60.8852 20.7188 20.6922 50.6133 2.0742 C58.4189 -2.0938 65.8808 -3.7122 74.625 -1.6875 C80.0884 1.1454 83.5048 4.624 85.875 10.3125 C89.7607 26.4855 83.9576 42.6168 75.625 56.3125 C72.8835 60.2622 69.9305 63.8246 66.625 67.3125 C66.2821 67.676 66.2821 67.676 64.5469 69.5156 C54.9891 78.7902 41.0422 85.3125 27.625 85.3125 C27.5673 85.6165 27.5673 85.6165 27.2754 87.155 C26.0996 93.2091 24.7048 99.1648 23.125 105.125 C22.8729 106.088 22.6208 107.051 22.3611 108.0432 C20.7023 114.3458 18.9901 120.6325 17.2539 126.9141 C13.059 142.1256 8.9956 157.3317 5.625 172.75 C5.3466 174.0151 5.0683 175.2803 4.7815 176.5837 C-1.9549 208.1527 -1.9549 208.1527 1.625 215.3125 C6.0591 215.222 8.6774 214.7143 11.9375 211.625 C25.2056 196.9479 34.8309 178.8202 43.7617 161.293 C44.1102 160.61 44.4587 159.927 44.8177 159.2233 C46.5175 155.8826 48.1996 152.5345 49.856 149.1721 C56.0943 136.6581 63.865 123.8937 76.125 116.5625 C80.9091 113.5358 83.2348 109.7424 86.0781 104.9297 C90.4582 97.519 96.3958 92.0719 104.625 89.3125 C112.4703 88.4332 117.8268 89.3689 124.125 94.25 C134.3781 106.81 134.583 120.8612 133.625 136.3125 C131.4845 155.8415 124.4377 174.8746 115.625 192.3125 C126.4538 190.9628 135.5939 183.4379 142.25 175.0938 C160.0708 151.9421 169.7579 124.1695 180.1108 97.1338 C180.5306 96.0455 180.9503 94.9572 181.3828 93.8359 C181.7452 92.8864 182.1076 91.9368 182.481 90.9585 C183.6652 88.2196 184.9352 85.7732 186.625 83.3125 C189.1875 82.375 189.1875 82.375 191.625 82.3125 C194.7183 85.4058 194.3784 89.1345 194.8672 93.3672 C195.9126 97.4304 197.8494 99.2453 201.3923 101.3748 C204.1389 102.5283 206.5616 102.7836 209.5273 103.0586 C210.6649 103.174 211.8025 103.2893 212.9746 103.4082 C215.3623 103.6357 217.7503 103.8596 220.1387 104.0801 C221.2776 104.1967 222.4164 104.3134 223.5898 104.4336 C224.6275 104.5308 225.6651 104.6281 226.7341 104.7283 C229.9797 105.3842 232.0102 106.2842 234.625 108.3125 C235.6662 110.5885 235.7596 111.7512 235.1787 114.1741 C234.9083 114.8192 234.6379 115.4643 234.3594 116.1289 C234.2057 116.5037 234.2057 116.5037 233.4282 118.4004 C233.2544 118.8087 233.2544 118.8087 232.375 120.875 C232.0158 121.7471 231.6567 122.6191 231.2866 123.5176 C230.0763 126.4536 228.8511 129.3831 227.625 132.3125 C209.0248 177.0129 209.0248 177.0129 203.5 198.4375 C203.2997 199.1999 203.0994 199.9623 202.8931 200.7478 C201.5628 206.3067 201.4247 211.6125 201.625 217.3125 C204.7346 218.2985 205.429 218.3906 208.625 217.1172 C227.9808 205.4735 240.7642 174.9421 250.7669 155.4213 C261.6583 134.1694 274.6298 109.1221 298.625 100.3125 C306.6693 97.8494 314.6518 97.0926 322.625 100.3125 C327.7001 105.6547 328.0322 109.5365 327.9688 116.7266 C327.0868 125.927 322.1785 134.1032 316.625 141.3125 C316.0011 142.1246 315.3772 142.9367 314.7344 143.7734 C304.178 156.4801 289.9892 163.7917 273.625 165.3125 C264.491 203.6222 264.491 203.6222 270.625 216.3125 C275.5874 218.7937 281.2359 217.3543 286.3125 215.875 C306.6843 208.5957 320.6273 190.3709 332.3667 173.123 C333.6103 171.3337 334.9116 169.5996 336.2227 167.8594 C342.8202 158.6354 343.4924 150.7551 343.5352 139.5781 C343.6044 124.1245 349.3749 109.9865 359.8125 98.625 C366.9623 91.8382 376.2223 87.3935 386.125 87.2852 C393.5834 87.7286 399.0811 89.8252 404.4375 95.0625 C409.7919 103.0175 410.8581 110.798 409.625 120.3125 C408.3516 122.293 408.3516 122.293 406.625 123.3125 C404.4375 123 404.4375 123 402.625 122.3125 C402.5154 121.6834 402.4059 121.0544 402.293 120.4062 C399.7669 106.7693 399.7669 106.7693 395.5 101.875 C391.57 99.7391 388.096 98.9886 383.625 99.3125 C378.7317 101.6207 376.2071 104.6094 373.625 109.3125 C371.7354 114.5836 370.9891 119.7585 370.625 125.3125 C370.5593 126.2819 370.4935 127.2512 370.4258 128.25 C369.8081 145.6293 377.4465 160.3949 384.5652 175.8015 C385.4841 177.9787 386.1376 180.0066 386.625 182.3125 C397.2908 180.7389 407.0514 174.955 413.625 166.3125 C415.6347 163.091 417.5454 159.8116 419.3423 156.4668 C421.0705 153.3647 422.2076 151.5306 425.3984 149.8633 C425.7658 149.7724 425.7658 149.7724 427.625 149.3125 C429.625 151.3125 429.625 151.3125 429.6875 154.25 C427.7944 164.738 417.8881 175.5484 409.5117 181.5391 C403.107 185.558 396.4678 189.0996 389.625 192.3125 C389.6482 193.3773 389.6714 194.442 389.6953 195.5391 C390.002 215.4327 387.3891 234.5978 373.3047 249.8203 C365.9919 256.7663 359.1583 261.5015 348.875 261.875 C343.6946 261.6498 340.4551 261.0443 336.625 257.3125 C330.6144 249.3526 330.8036 240.9047 331.625 231.3125 C332.4775 227.3471 333.8329 223.9411 335.625 220.3125 C336.0723 219.3663 336.5196 218.4202 336.9805 217.4453 C340.068 211.3364 343.5592 206.8645 348.625 202.3125 C349.4706 201.4256 350.3162 200.5387 351.1875 199.625 C353.8535 197.0957 356.5195 195.2624 359.625 193.3125 C357.6318 186.3363 354.6532 180.1363 351.3184 173.7227 C348.625 168.5065 348.625 168.5065 348.625 166.3125 C345.6624 169.0887 343.5299 171.8407 341.4375 175.3125 C327.314 197.8741 307.0697 221.6801 280.082 227.8984 C270.8806 229.4491 262.2355 228.0755 254.4453 222.8516 C247.9201 217.3345 245.0716 208.6487 244.2227 200.4062 C243.946 196.7116 243.7665 193.0149 243.625 189.3125 C241.0339 192.4689 238.6368 195.7026 236.3279 199.0703 C227.8498 211.3495 218.155 224.1463 203.625 229.3125 C198.3783 229.7895 195.0666 229.1748 190.625 226.3125 C185.7186 221.9668 184.567 215.5712 183.625 209.3125 C182.051 177.5382 195.1583 145.7365 205.625 116.3125 C204.8197 116.1329 204.0143 115.9533 203.1846 115.7683 C202.6514 115.6435 202.6514 115.6435 199.9531 115.0117 C199.4267 114.891 199.4267 114.891 196.7627 114.28 C192.0848 112.8376 188.4552 110.3012 184.625 107.3125 C184.5406 107.5775 184.5406 107.5775 184.1138 108.9187 C180.8567 118.9411 176.7119 128.606 172.625 138.3125 C172.2504 139.206 171.8757 140.0995 171.4897 141.02 C161.5196 164.6016 147.4543 189.8702 123.293 201.3555 C120.2375 202.4515 117.2603 202.954 114.0625 203.5 C106.3746 205.0863 103.3412 209.3932 98.625 215.3125 C91.3484 223.0297 82.8451 228.4001 72 228.875 C64.5514 228.4983 56.8178 225.802 51.625 220.3125 C43.6541 208.9957 41.9558 196.7527 42.625 183.3125 C41.965 183.3125 41.305 183.3125 40.625 183.3125 C40.3852 183.9841 40.1455 184.6557 39.8984 185.3477 C33.359 200.5728 19.1611 221.5298 3.5625 228.375 C-0.7505 229.6981 -4.0015 229.388 -8.375 228.3125 C-14.3683 224.9072 -16.427 219.2276 -18.4688 212.9492 C-19.9596 206.6888 -19.7126 200.2731 -19.6875 193.875 C-19.6873 193.2013 -19.6872 192.5276 -19.687 191.8335 C-19.665 178.5215 -18.3853 165.4741 -16.375 152.3125 C-16.6476 152.6876 -16.6476 152.6876 -18.0273 154.5859 C-23.1335 161.5163 -28.4682 168.0343 -34.375 174.3125 C-35.2206 175.22 -36.0663 176.1275 -36.9375 177.0625 C-42.9625 182.624 -48.3891 186.2051 -56.375 188.3125 C-56.2364 188.6747 -56.2364 188.6747 -55.5352 190.5078 C-55.1729 191.4746 -54.8107 192.4414 -54.4375 193.4375 C-54.0779 194.3888 -53.7182 195.3402 -53.3477 196.3203 C-48.3357 211.7387 -51.4223 229.5454 -58.25 243.9375 C-62.3923 251.5076 -67.2518 257.8332 -75.375 261.3125 C-80.2737 262.5583 -84.219 262.6015 -89.125 261.375 C-96.1352 256.9262 -99.5534 250.2674 -101.375 242.3125 C-102.5738 234.9465 -102.5702 227.6933 -102.5625 220.25 C-102.5629 219.8976 -102.5629 219.8976 -102.5647 218.1145 C-102.5633 205.7606 -101.8312 193.5864 -100.375 181.3125 C-100.6966 181.866 -101.0182 182.4195 -101.3496 182.9897 C-113.0887 203.1062 -113.0887 203.1062 -120.375 211.3125 C-121.0801 212.1594 -121.7852 213.0063 -122.5117 213.8789 C-128.2494 220.5979 -134.3829 226.8741 -143.0625 229.375 C-148.2637 229.2769 -151.8982 228.4458 -156.0625 225.25 C-161.6649 218.1335 -163.5135 210.6438 -163.4727 201.6992 C-163.4694 200.4521 -163.4662 199.2049 -163.4629 197.9199 C-163.4545 196.6263 -163.4461 195.3328 -163.4375 194 C-163.433 192.6871 -163.4285 191.3742 -163.4238 190.0215 C-163.4121 186.7851 -163.3956 183.5488 -163.375 180.3125 C-164.0157 181.3631 -164.6563 182.4137 -165.3164 183.4961 C-169.9755 191.0814 -174.6171 198.4981 -180.375 205.3125 C-180.687 205.6966 -180.687 205.6966 -182.2656 207.6406 C-189.2959 215.9994 -197.8213 222.5174 -208.9375 223.6875 C-213.8623 223.1503 -217.6351 221.6547 -221.5625 218.625 C-228.5212 209.7467 -229.5419 199.3443 -229.375 188.3125 C-229.706 188.82 -230.0369 189.3275 -230.3779 189.8503 C-250.7342 220.8576 -250.7342 220.8576 -266.3125 228.8125 C-271.9186 229.7278 -277.1706 229.4626 -282.25 226.8125 C-288.0455 219.9943 -289.0403 212.7673 -288.875 204.0625 C-288.8607 203.0082 -288.8465 201.9539 -288.8318 200.8677 C-288.0651 171.7868 -276.9597 143.0635 -266.375 116.3125 C-267.1941 116.1264 -268.0132 115.9403 -268.8572 115.7485 C-269.9343 115.4938 -271.0114 115.239 -272.1211 114.9766 C-273.1877 114.7286 -274.2543 114.4806 -275.3533 114.2251 C-279.498 112.9733 -282.0282 111.0185 -285.375 108.3125 C-285.87 108.1475 -285.87 108.1475 -288.375 107.3125 C-288.5299 107.8857 -288.6849 108.459 -288.8445 109.0496 C-290.9091 116.3272 -293.6976 123.1837 -296.6875 130.125 C-297.181 131.2792 -297.6744 132.4334 -298.1829 133.6226 C-301.4549 141.2475 -304.7584 148.8435 -308.375 156.3125 C-308.6534 156.8952 -308.9319 157.4778 -309.2188 158.0781 C-337.3333 216.7309 -337.3333 216.7309 -361.5312 228.3477 C-366.1925 229.8922 -369.9818 229.0933 -374.3984 227.3555 C-379.5993 224.6112 -381.399 219.5818 -383.375 214.3125 C-389.1697 190.056 -381.7766 162.9705 -376.4375 139.25 C-376.2746 138.523 -376.1117 137.7961 -375.9438 137.0471 C-374.1577 129.1421 -372.1912 121.3001 -369.8789 113.5312 C-369.6908 112.8706 -369.5027 112.21 -369.3089 111.5294 C-367.5419 105.8058 -364.5428 102.264 -359.375 99.3125 C-354.809 97.7905 -350.9761 97.5653 -346.5625 99.625 C-344.375 101.3125 -344.375 101.3125 -342.375 104.3125 C-342.0715 111.6002 -344.422 118.7522 -346.5078 125.6445 C-346.8208 126.7071 -347.1338 127.7696 -347.4562 128.8643 C-348.1217 131.1231 -348.7906 133.3809 -349.4628 135.6377 C-351.203 141.4886 -352.9102 147.3491 -354.6133 153.2109 C-354.9459 154.3557 -355.2785 155.5004 -355.6212 156.6799 C-358.1682 165.4933 -360.5507 174.3285 -362.6875 183.25 C-362.9461 184.3216 -363.2047 185.3932 -363.4712 186.4973 C-365.8654 196.7935 -368.1599 206.7817 -366.375 217.3125 C-364.5625 217.9258 -364.5625 217.9258 -362.375 218.3125 C-359.375 216.5 -359.375 216.5 -356.375 214.3125 C-355.6325 213.9825 -354.89 213.6525 -354.125 213.3125 C-352.375 212.3125 -352.375 212.3125 -351.5352 210.5859 C-350.0597 207.6947 -348.1203 205.45 -346.0625 202.9375 C-338.7994 193.6985 -333.124 183.5342 -327.375 173.3125 C-326.7261 172.1744 -326.0772 171.0363 -325.4087 169.8638 C-313.7657 149.3814 -304.6823 128.2076 -296.12 106.2782 C-294.1425 101.2253 -292.1247 96.1932 -290.0117 91.1953 C-289.5485 90.0985 -289.0854 89.0017 -288.6082 87.8716 C-287.375 85.3125 -287.375 85.3125 -285.375 83.3125 C-282.8125 83.125 -282.8125 83.125 -280.375 83.3125 C-278.1616 85.5259 -278.5375 90.3279 -278.168 93.332 C-277.2003 96.9692 -276.4235 98.1063 -273.375 100.3125 C-267.0182 103.2504 -260.5358 103.9067 -253.625 104.375 C-241.3994 105.2409 -241.3994 105.2409 -238.375 107.3125 C-236.6909 112.6826 -238.2195 116.4471 -240.3906 121.375 C-240.5541 121.763 -240.5541 121.763 -241.3813 123.7263 C-242.0847 125.3931 -242.7944 127.0572 -243.5098 128.7188 C-245.3971 133.1083 -247.2312 137.5199 -249.0703 141.9297 C-249.4402 142.8137 -249.8101 143.6978 -250.1913 144.6086 C-272.1214 197.1983 -272.1214 197.1983 -271.375 216.3125 C-271.045 216.9725 -270.715 217.6325 -270.375 218.3125 C-263.9151 218.151 -260.6684 214.6776 -256.375 210.3125 C-250.8132 203.8662 -246.0174 197.0175 -241.5 189.8125 C-240.897 188.8547 -240.2941 187.897 -239.6729 186.9102 C-232.0094 174.6389 -225.1652 162.2981 -219.3125 149.0625 C-210.1207 128.303 -197.1109 108.2363 -175.375 99.3125 C-170.1102 97.691 -164.2953 97.2012 -159.0859 99.1836 C-154.0703 102.0483 -151.925 105.2126 -149.375 110.3125 C-148.715 110.6425 -148.055 110.9725 -147.375 111.3125 C-147.1688 110.4256 -146.9625 109.5387 -146.75 108.625 C-144.737 103.7755 -141.4921 101.4525 -136.9375 99 C-132.4421 97.7939 -128.819 97.6386 -124.5625 99.625 C-122.375 101.3125 -122.375 101.3125 -120.375 104.3125 C-119.789 110.3557 -121.3354 115.332 -123.1562 121.0039 C-123.4456 121.9344 -123.735 122.8648 -124.0331 123.8234 C-124.6523 125.813 -125.2755 127.8012 -125.9024 129.7883 C-127.5384 134.9804 -129.1384 140.1834 -130.7383 145.3867 C-131.0551 146.4158 -131.372 147.4448 -131.6984 148.5051 C-146.2727 196.0326 -146.2727 196.0326 -145.375 217.3125 C-143.1123 218.0967 -141.8448 218.4785 -139.5508 217.668 C-124.7332 208.3798 -116.2871 191.4405 -107.6875 176.75 C-107.48 176.3972 -107.48 176.3972 -106.4302 174.6116 C-105.0403 172.1983 -103.7086 169.7573 -102.375 167.3125 C-101.747 166.223 -101.119 165.1335 -100.4719 164.011 C-94.5238 153.3032 -91.7743 142.2971 -89.1581 130.3928 C-87.9296 124.822 -86.6251 119.2691 -85.3242 113.7148 C-85.071 112.629 -84.8178 111.5431 -84.5569 110.4244 C-76.2288 74.9909 -62.1833 24.4864 -29.5625 3.25 C-20.3448 -2.3188 -10.0823 -5.0412 0 0 Z M-23.1445 17.2578 C-35.2807 33.8786 -44.1136 56.08 -47.375 76.3125 C-35.1048 76.1009 -24.5257 69.5373 -15.9141 61.1797 C-5.5794 49.5095 0.9965 35.8038 0.8477 20.043 C0.5306 16.1553 -0.4334 13.6923 -2.375 10.3125 C-10.7813 4.7083 -17.6406 10.7935 -23.1445 17.2578 Z M55.8438 16.5977 C53.9592 19.4374 52.2744 22.3298 50.625 25.3125 C50.3118 25.8778 50.3118 25.8778 48.7266 28.7383 C44.4355 36.7793 41.0252 45.1013 37.8125 53.625 C37.4395 54.6146 37.0665 55.6042 36.6821 56.6238 C34.2988 63.1032 32.3314 69.6236 30.625 76.3125 C43.2335 76.0239 53.6893 70.0284 62.625 61.3125 C72.163 50.4185 79.3653 37.2431 79.6875 22.4414 C79.3529 17.7497 78.6676 14.0573 75.625 10.3125 C67.6153 4.9727 60.9795 10.0091 55.8438 16.5977 Z M95.75 104.875 C93.625 107.3125 93.625 107.3125 93.625 109.3125 C95.935 109.6425 98.245 109.9725 100.625 110.3125 C101.625 113.3125 101.625 113.3125 100.9883 115.3516 C99.2359 117.8722 97.6239 118.4989 94.8125 119.6875 C90.1642 121.9144 87.322 123.7614 84.625 128.3125 C79.8536 143.8636 82.3029 163.9248 89.0352 178.6172 C92.4505 184.4074 97.1429 190.8469 103.625 193.3125 C104.615 193.3125 105.605 193.3125 106.625 193.3125 C116.4076 173.9251 124.2341 153.1874 125.625 131.3125 C125.6779 130.6125 125.7307 129.9126 125.7852 129.1914 C126.1416 120.4968 124.3559 111.0547 118.625 104.3125 C115.0393 100.5219 111.8963 99.5592 106.832 99.2148 C102.0233 99.4276 99.2263 101.7765 95.75 104.875 Z M294.625 120.3125 C290.1538 126.2962 286.7091 132.8679 283.3125 139.5 C283.1436 139.8265 283.1436 139.8265 282.2888 141.4788 C280.0341 146.0116 278.7089 150.366 277.625 155.3125 C290.4247 153.6701 300.9654 147.8561 309.625 138.3125 C315.0555 131.2119 320.266 123.133 319.5 113.875 C318.625 110.3125 318.625 110.3125 315.625 108.3125 C306.3287 107.0213 300.1449 113.848 294.625 120.3125 Z M-177.0547 115.9883 C-195.0709 137.367 -207.7079 174.3895 -206.375 202.3125 C-204.7731 208.9144 -204.7731 208.9144 -203.375 210.3125 C-197.9399 210.4096 -195.0382 209.4719 -190.875 205.9375 C-173.0614 188.6095 -154.3602 156.3391 -154 131.125 C-154.0622 124.0111 -154.9036 118.7548 -159.125 112.875 C-165.8557 108.2009 -171.7766 110.7225 -177.0547 115.9883 Z M73.625 154.3125 C69.4656 165.4042 67.293 177.4902 66.625 189.3125 C66.5721 190.1066 66.5193 190.9006 66.4648 191.7188 C66.1743 199.7022 67.1429 207.9813 72 214.5 C75.9308 217.2141 78.1025 217.4916 82.8125 216.9375 C88.8002 215.0383 94.8675 209.424 97.918 204.0234 C98.1513 203.4588 98.3846 202.8942 98.625 202.3125 C98.1171 201.9722 97.6092 201.6319 97.0859 201.2812 C83.2886 191.5663 78.6141 177.2528 75.625 161.3125 C75.2546 158.982 74.9317 156.6526 74.625 154.3125 C74.295 154.3125 73.965 154.3125 73.625 154.3125 Z M-75.375 188.3125 C-77.8687 195.0304 -79.335 201.69 -80.5 208.75 C-80.6689 209.7226 -80.8377 210.6952 -81.0117 211.6973 C-86.0919 241.6385 -86.0919 241.6385 -80.375 250.3125 C-78.125 251.625 -78.125 251.625 -75.375 251.3125 C-67.0614 246.232 -62.4273 236.0979 -59.9375 226.875 C-58.2171 216.6484 -57.8738 205.2689 -63.6641 196.3203 C-67.0174 191.9986 -70.2278 190.0625 -75.375 188.3125 Z M362.625 201.3125 C360.6085 202.6255 358.6129 203.9574 356.625 205.3125 C355.8 205.8694 354.975 206.4262 354.125 207 C347.0236 213.5688 341.2465 223.9623 340.4219 233.7148 C340.3286 238.7574 340.3057 242.2272 343.625 246.3125 C345.625 248.3125 345.625 248.3125 349.4375 248.625 C354.4479 248.48 357.1135 246.7782 360.6875 243.3125 C367.9425 232.0789 368.3056 218.6312 365.75 205.75 C365.3787 204.6156 365.0075 203.4812 364.625 202.3125 C363.965 201.9825 363.305 201.6525 362.625 201.3125 Z " transform="translate(758.375,124.6875)"/>
  <path d="M0 0 C3.194 2.708 4.7045 4.2799 5.4141 8.4102 C5.6356 15.0858 3.9003 19.1822 0.1875 24.6875 C-3.3383 28.4147 -6.5056 29.7903 -11.5625 30.5 C-15.938 29.8636 -17.2966 28.419 -20 25 C-21.762 19.714 -21.715 14.9589 -19.5 9.875 C-15.5537 2.7038 -8.1796 -2.4539 0 0 Z " transform="translate(422,182)"/>
  <path d="M0 0 C-0.33 1.32 -0.66 2.64 -1 4 C-3.97 4 -6.94 4 -10 4 C-10.5055 6.082 -11.0042 8.1657 -11.5 10.25 C-11.7784 11.4102 -12.0569 12.5703 -12.3438 13.7656 C-13 17 -13 17 -13 21 C-12.4638 20.505 -11.9275 20.01 -11.375 19.5 C-8.3486 17.5886 -6.5184 17.5411 -3 18 C-0.1413 22.288 -0.4027 25.968 -1 31 C-2.7855 36.8637 -5.8966 40.6978 -11 44 C-14.6687 45.0121 -16.845 45.4146 -20.4375 44.125 C-22.9213 40.747 -22.3061 37.0171 -22 33 C-21.409 29.3883 -20.5754 25.8616 -19.6875 22.3125 C-19.4742 21.4018 -19.2608 20.4911 -19.041 19.5527 C-17.0504 11.3703 -14.8106 6.0718 -8 1 C-5.2912 -0.3544 -2.9907 -0.065 0 0 Z M-12.5 23.0625 C-16.228 27.4428 -18.1456 31.5555 -18.3125 37.3125 C-18 41 -18 41 -16 43 C-13.625 43.0625 -13.625 43.0625 -11 42 C-7.4772 37.1687 -5.4928 31.9915 -5 26 C-5.875 22.9375 -5.875 22.9375 -7 21 C-10 21 -10 21 -12.5 23.0625 Z " transform="translate(357,405)"/>
  <path d="M0 0 C0 1.32 0 2.64 0 4 C-3.63 4 -7.26 4 -11 4 C-12.6111 8.4831 -14.0858 12.6252 -14.5625 17.375 C-15 21 -15 21 -17 24 C-17.5003 25.6651 -17.9374 27.3497 -18.332 29.043 C-18.5737 30.0349 -18.8154 31.0268 -19.0645 32.0488 C-19.5581 34.1202 -20.0452 36.1931 -20.5254 38.2676 C-22.3805 45.8099 -24.8509 51.7657 -30.3125 57.375 C-33.9211 59.557 -36.8223 60.3262 -41 61 C-41.99 60.34 -42.98 59.68 -44 59 C-43.67 58.01 -43.34 57.02 -43 56 C-40.855 55.835 -40.855 55.835 -30 55 C-29.7577 53.9584 -29.5153 52.9169 -29.2656 51.8438 C-26.9369 41.8716 -24.512 31.9276 -22 22 C-23.65 22 -25.3 22 -27 22 C-27 21.34 -27 20.68 -27 20 C-25.02 20 -23.04 20 -21 20 C-20.9207 19.6797 -20.9207 19.6797 -20.5195 18.0586 C-18.6254 11.0368 -16.3242 5.7852 -10.6875 1.0625 C-6.9598 -0.4113 -3.9938 -0.2031 0 0 Z " transform="translate(748,405)"/>
  <path d="M0 0 C-0.33 1.32 -0.66 2.64 -1 4 C-2.485 4.165 -2.485 4.165 -10 5 C-13.2025 16.9568 -16.2346 28.9344 -19 41 C-16.36 39.68 -13.72 38.36 -11 37 C-13.5172 42.0344 -14.9722 42.7461 -20 45 C-22.2266 44.1016 -22.2266 44.1016 -24 43 C-23.3828 35.3586 -21.7204 28.2118 -19.75 20.8125 C-19.4625 19.6633 -19.1751 18.5141 -18.8789 17.3301 C-16.9839 10.1846 -15.247 5.1145 -9.125 0.625 C-6.0618 -0.2759 -3.1694 -0.1219 0 0 Z " transform="translate(783,405)"/>
  <path d="M0 0 C-0.33 1.32 -0.66 2.64 -1 4 C-2.485 4.165 -2.485 4.165 -10 5 C-13.624 16.864 -16.329 28.8931 -19 41 C-16.36 39.68 -13.72 38.36 -11 37 C-13.5172 42.0344 -14.9722 42.7461 -20 45 C-22.2266 44.1016 -22.2266 44.1016 -24 43 C-23.3828 35.3586 -21.7204 28.2118 -19.75 20.8125 C-19.4625 19.6633 -19.1751 18.5141 -18.8789 17.3301 C-16.9839 10.1846 -15.247 5.1145 -9.125 0.625 C-6.0618 -0.2759 -3.1694 -0.1219 0 0 Z " transform="translate(949,405)"/>
  <path d="M0 0 C-0.33 2.64 -0.66 5.28 -1 8 C0.65 8.33 2.3 8.66 4 9 C4 9.66 4 10.32 4 11 C1.69 11 -0.62 11 -3 11 C-3.7766 16.9911 -4.4209 22.9867 -5 29 C-4.0719 28.4844 -3.1438 27.9688 -2.1875 27.4375 C1 26 1 26 4 27 C2.6113 27.9893 1.2137 28.966 -0.1875 29.9375 C-0.9648 30.4828 -1.7421 31.028 -2.543 31.5898 C-5.0964 33.0553 -7.0838 33.6827 -10 34 C-11 33 -11 33 -11.3125 29.8125 C-11.277 23.342 -8.9235 17.1139 -7 11 C-8.32 11 -9.64 11 -11 11 C-11 10.34 -11 9.68 -11 9 C-10.4019 8.9794 -9.8037 8.9588 -9.1875 8.9375 C-7 8 -7 8 -5.375 4.5 C-5.1481 3.9225 -5.1481 3.9225 -4 1 C-2 0 -2 0 0 0 Z " transform="translate(487,416)"/>
  <path d="M0 0 C0.66 0.33 1.32 0.66 2 1 C1.5936 2.7274 1.1871 4.4548 0.7805 6.1821 C0.4232 7.7012 0.0663 9.2204 -0.2903 10.7397 C-1.2245 14.7181 -2.165 18.6948 -3.1211 22.668 C-3.3 23.4157 -3.4788 24.1634 -3.6631 24.9338 C-4.0036 26.3568 -4.3466 27.7792 -4.6924 29.2009 C-5.7079 33.4596 -6.4425 37.664 -7 42 C-6.505 42.165 -6.505 42.165 -4 43 C-4 43.33 -4 43.66 -4 44 C-8.62 44 -13.24 44 -18 44 C-16.35 42.68 -14.7 41.36 -13 40 C-11.9734 37.9854 -11.9734 37.9854 -11.418 35.8906 C-11.2085 35.1365 -10.999 34.3824 -10.7832 33.6055 C-10.5866 32.8282 -10.39 32.0509 -10.1875 31.25 C-9.9716 30.4572 -9.7557 29.6645 -9.5332 28.8477 C-9.006 26.9027 -8.5008 24.9519 -8 23 C-8.5917 23.4447 -9.1834 23.8895 -9.793 24.3477 C-10.1881 24.6306 -10.1881 24.6306 -12.1875 26.0625 C-12.5762 26.3467 -12.5762 26.3467 -14.543 27.7852 C-17 29 -17 29 -19.7383 28.8086 C-22 28 -22 28 -23 26 C-23.8287 19.3703 -21.6288 14.5206 -18 9 C-14.637 5.2693 -10.9236 2.2957 -6 1 C-4.3338 0.9621 -2.666 0.9537 -1 1 C-0.67 0.67 -0.34 0.34 0 0 Z M-14 7 C-18.0506 12.2133 -18.5323 17.6119 -18 24 C-16.1914 24.6211 -16.1914 24.6211 -14 25 C-8.6071 21.5881 -6.6055 18.089 -5 12 C-4.25 8.5625 -4.25 8.5625 -4 6 C-5 5 -5 5 -7.3125 4.8125 C-10.185 5.0129 -11.5684 5.5073 -14 7 Z " transform="translate(571,421)"/>
  <path d="M0 0 C2.4375 1.375 2.4375 1.375 4 4 C4.8945 9.936 4.4357 14.961 1 20 C-1.8252 23.7405 -4.3436 26.2435 -9.0625 27.125 C-13 27 -13 27 -16 25.6875 C-18.5991 22.195 -18.6488 19.8753 -18.4219 15.6016 C-17.5352 10.1335 -15.4147 6.3137 -11.375 2.5625 C-7.3508 -0.085 -4.8702 -0.4198 0 0 Z M-9.625 3.1875 C-13.6359 8.4746 -13.8441 14.6199 -13 21 C-11 23.6875 -11 23.6875 -9 25 C-4.9724 23.1495 -3.0641 21.2344 -1.5039 17.0352 C-0.341 12.3384 -0.1075 7.8297 -2.25 3.4375 C-4.7644 1.3721 -6.9564 1.2374 -9.625 3.1875 Z " transform="translate(397,423)"/>
  <path d="M0 0 C-0.3799 4.8794 -0.8013 9.6345 -2.0625 14.375 C-3 18 -3 18 -3 22 C0.6505 21.0874 1.8888 20.1537 4.125 17.0625 C6.2456 13.0419 7.1658 8.7815 8.0938 4.3555 C9 2 9 2 11.0938 0.6758 C11.7228 0.4528 12.3519 0.2298 13 0 C14.0637 3.246 13.9105 5.2742 13.0039 8.5469 C12.7751 9.3912 12.5463 10.2355 12.3105 11.1055 C12.0637 11.9782 11.8168 12.8509 11.5625 13.75 C11.3195 14.6382 11.0765 15.5263 10.8262 16.4414 C10.226 18.6301 9.6171 20.816 9 23 C10.98 22.01 12.96 21.02 15 20 C13.6117 23.355 12.1441 25.1505 9 27 C7.68 27 6.36 27 5 27 C4.34 25.35 3.68 23.7 3 22 C2.2987 22.6394 1.5975 23.2788 0.875 23.9375 C-2.2395 26.1718 -4.2137 26.7418 -8 27 C-8.33 26.67 -8.66 26.34 -9 26 C-8.9368 18.4659 -6.9721 11.2187 -5 4 C-6.98 4.66 -8.96 5.32 -11 6 C-5.1538 0 -5.1538 0 0 0 Z " transform="translate(436,423)"/>
  <path d="M0 0 C-0.6455 7.9071 -2.87 15.3913 -5 23 C-3.02 22.01 -1.04 21.02 1 20 C-0.0558 22.7835 -1.0052 24.0041 -3.375 25.875 C-3.8081 26.0606 -3.8081 26.0606 -6 27 C-8.1641 26.0703 -8.1641 26.0703 -10 25 C-8.9492 17.6935 -7.5432 10.9361 -5 4 C-6.98 4.66 -8.96 5.32 -11 6 C-9.8921 2.6763 -9.5156 2.3844 -6.625 0.75 C-6.0191 0.3942 -5.4133 0.0384 -4.7891 -0.3281 C-3 -1 -3 -1 0 0 Z " transform="translate(525,423)"/>
  <path d="M0 0 C1.6754 0.286 3.3439 0.6178 5 1 C4.3622 8.5259 2.8011 15.671 1 23 C5.4866 21.2666 7.8932 19.4875 10.1367 15.1758 C11.5267 11.6726 12.3216 8.0384 13.0938 4.3555 C14 2 14 2 16.0938 0.6758 C16.7228 0.4528 17.3519 0.2298 18 0 C19.0637 3.246 18.9105 5.2742 18.0039 8.5469 C17.7751 9.3912 17.5463 10.2355 17.3105 11.1055 C17.0637 11.9782 16.8168 12.8509 16.5625 13.75 C16.3195 14.6382 16.0765 15.5263 15.8262 16.4414 C15.226 18.6301 14.6171 20.816 14 23 C15.98 22.01 17.96 21.02 20 20 C18.6191 23.3372 17.1799 25.223 14 27 C11.875 26.9375 11.875 26.9375 10 26 C8.75 23.9375 8.75 23.9375 8 22 C7.2988 22.6394 6.5975 23.2788 5.875 23.9375 C2.7605 26.1718 0.7863 26.7418 -3 27 C-3.33 26.67 -3.66 26.34 -4 26 C-3.9368 18.4659 -1.9721 11.2187 0 4 C-1.98 4.66 -3.96 5.32 -6 6 C-4 4 -2 2 0 0 Z " transform="translate(600,423)"/>
  <path d="M0 0 C2 2 2 2 2.1875 4.75 C0.3841 9.6857 -3.4429 11.6487 -8 14 C-10.293 14.668 -10.293 14.668 -12 15 C-11.67 17.31 -11.34 19.62 -11 22 C-7.6254 21.4528 -5.9177 20.9451 -3 19 C-2.01 19.33 -1.02 19.66 0 20 C-8.4343 27 -8.4343 27 -14 27 C-17 25 -17 25 -17.875 21.9375 C-18.1406 13.5696 -14.5768 7.0894 -9 1 C-5.9868 -0.5066 -3.3171 -0.1777 0 0 Z M-7 2 C-9.6338 5.6533 -11.4688 8.4852 -12 13 C-4.9817 10.9725 -4.9817 10.9725 -3 8 C-2.8125 5.3125 -2.8125 5.3125 -3 3 C-4.32 2.67 -5.64 2.34 -7 2 Z " transform="translate(661,423)"/>
  <path d="M0 0 C2.4375 1.375 2.4375 1.375 4 4 C4.8884 9.8959 4.4958 15.0382 1 20 C-2.2418 23.5601 -4.9887 25.6862 -9.625 27.125 C-13 27 -13 27 -15.9375 25.75 C-18.7132 22.0491 -18.7028 19.3684 -18.4844 14.8242 C-17.4738 8.9318 -14.5504 5.3482 -10.125 1.5 C-6.3773 -0.2989 -4.108 -0.6086 0 0 Z M-9.625 3.1875 C-13.6359 8.4746 -13.8441 14.6199 -13 21 C-11 23.6875 -11 23.6875 -9 25 C-5.1565 23.5421 -3.8492 21.6103 -2 18 C-0.3955 13.1866 0.0095 8.0695 -2.25 3.4375 C-4.7644 1.3721 -6.9564 1.2374 -9.625 3.1875 Z " transform="translate(812,423)"/>
  <path d="M0 0 C0.2913 0.1179 0.2913 0.1179 1.7656 0.7148 C0.5962 4.223 0.0601 4.3499 -3.0469 6.0273 C-9.2995 9.8236 -11.2079 14.123 -12.9844 21.0898 C-13.4126 22.9622 -13.8332 24.8365 -14.2344 26.7148 C-15.8844 27.0448 -17.5344 27.3748 -19.2344 27.7148 C-18.0049 20.2365 -16.3461 12.9932 -14.2344 5.7148 C-16.2144 6.3748 -18.1944 7.0348 -20.2344 7.7148 C-16.7435 3.7106 -14.5849 2.0881 -9.2344 1.7148 C-9.2344 3.3648 -9.2344 5.0148 -9.2344 6.7148 C-9.0049 6.4564 -9.0049 6.4564 -7.8438 5.1484 C-7.2302 4.4897 -6.6166 3.831 -5.9844 3.1523 C-5.3811 2.4911 -4.7778 1.8298 -4.1562 1.1484 C-2.2344 -0.2852 -2.2344 -0.2852 0 0 Z " transform="translate(859.234375,421.28515625)"/>
  <path d="M0 0 C-0.7926 7.7678 -2.4189 15.363 -4 23 C-2.02 22.34 -0.04 21.68 2 21 C2 21.66 2 22.32 2 23 C-1.5805 25.7478 -4.4924 27.4697 -9 28 C-9.33 26.35 -9.66 24.7 -10 23 C-10.7219 23.6394 -11.4438 24.2788 -12.1875 24.9375 C-15.0077 27.0056 -16.5268 27.9086 -20 28 C-21.8125 27 -21.8125 27 -23 25 C-24.0694 18.45 -21.4852 13.3829 -18 8 C-13.3683 2.7863 -7.0123 0 0 0 Z M-14.875 7.8125 C-17.4545 11.6818 -18.1283 14.1477 -18.0625 18.6875 C-18.0535 19.4957 -18.0445 20.304 -18.0352 21.1367 C-18.0236 21.7516 -18.012 22.3665 -18 23 C-14.3125 24.1484 -14.3125 24.1484 -11.5 22.8125 C-7.3091 18.0977 -5 11.3293 -5 5 C-9.4364 4.4781 -11.959 4.3492 -14.875 7.8125 Z " transform="translate(900,422)"/>
</svg>
